{
    "asset": {
        "version": "2.0",
        "generator": "Open Asset Import Library (assimp v5.0.cd42b995)"
    },
    "extensionsUsed": [
        "FB_ngon_encoding"
    ],
    "accessors": [
        {
            "bufferView": 0,
            "byteOffset": 0,
            "componentType": 5126,
            "count": 131757,
            "type": "VEC3",
            "max": [
                0.7208264470100403,
                0.4282226264476776,
                0.48896825313568118
            ],
            "min": [
                -0.6458814144134522,
                -0.43513211607933047,
                -0.15021753311157227
            ]
        },
        {
            "bufferView": 1,
            "byteOffset": 0,
            "componentType": 5126,
            "count": 131757,
            "type": "VEC3",
            "max": [
                0.9999805688858032,
                0.9999815821647644,
                0.9999996423721314
            ],
            "min": [
                -0.9999576807022095,
                -0.9999895095825195,
                -0.9999039769172669
            ]
        },
        {
            "bufferView": 2,
            "byteOffset": 0,
            "componentType": 5126,
            "count": 131757,
            "type": "VEC2",
            "max": [
                0.9977788329124451,
                0.5236693024635315
            ],
            "min": [
                0.00209595263004303,
                0.0041536688804626469
            ]
        },
        {
            "bufferView": 3,
            "byteOffset": 0,
            "componentType": 5125,
            "count": 685302,
            "type": "SCALAR",
            "max": [
                131756
            ],
            "min": [
                0
            ]
        }
    ],
    "buffers": [
        {
            "byteLength": 6957432,
            "uri": "result.bin"
        }
    ],
    "bufferViews": [
        {
            "buffer": 0,
            "byteOffset": 0,
            "byteLength": 1581084,
            "target": 34962
        },
        {
            "buffer": 0,
            "byteOffset": 1581084,
            "byteLength": 1581084,
            "target": 34962
        },
        {
            "buffer": 0,
            "byteOffset": 3162168,
            "byteLength": 1054056,
            "target": 34962
        },
        {
            "buffer": 0,
            "byteOffset": 4216224,
            "byteLength": 2741208,
            "target": 34963
        }
    ],
    "images": [
        {
            "uri": "..\\3D Objects\\SCANIV~1.fbm\\texture.jpg"
        }
    ],
    "materials": [
        {
            "name": "main",
            "pbrMetallicRoughness": {
                "baseColorTexture": {
                    "index": 0
                },
                "metallicFactor": 0.0,
                "roughnessFactor": 0.8585786819458008
            }
        }
    ],
    "meshes": [
        {
            "name": "mesh",
            "primitives": [
                {
                    "mode": 4,
                    "material": 0,
                    "indices": 3,
                    "attributes": {
                        "POSITION": 0,
                        "NORMAL": 1,
                        "TEXCOORD_0": 2
                    }
                }
            ]
        }
    ],
    "nodes": [
        {
            "name": "RootNode",
            "children": [
                1,
                3,
                4,
                5,
                6
            ]
        },
        {
            "name": "レイヤ 01",
            "children": [
                2
            ]
        },
        {
            "name": "mesh",
            "mesh": 0
        },
        {
            "name": "Perspective",
            "matrix": [
                -0.4784177243709564,
                0.7626846432685852,
                -0.4352339804172516,
                0.0,
                -0.7626846432685852,
                -0.11523708701133728,
                0.6364216208457947,
                0.0,
                0.4352338910102844,
                0.6364216804504395,
                0.6368193030357361,
                0.0,
                1.6964285373687745,
                -2.4405264854431154,
                1.535531759262085,
                1.0
            ]
        },
        {
            "name": "Top",
            "matrix": [
                -4.371138828673793e-8,
                0.0,
                -1.0,
                0.0,
                0.0,
                1.0,
                0.0,
                0.0,
                1.0,
                0.0,
                -4.371138828673793e-8,
                0.0,
                0.464839905500412,
                0.3276316225528717,
                1.2258445024490357,
                1.0
            ]
        },
        {
            "name": "Front",
            "matrix": [
                -4.371138828673793e-8,
                1.0,
                0.0,
                0.0,
                -1.0,
                -4.371138828673793e-8,
                0.0,
                0.0,
                0.0,
                0.0,
                1.0,
                0.0,
                -0.003454744815826416,
                -1.2258445024490357,
                0.03747251629829407,
                1.0
            ]
        },
        {
            "name": "Right",
            "matrix": [
                1.0,
                0.0,
                0.0,
                0.0,
                0.0,
                -1.0,
                -8.742277657347586e-8,
                0.0,
                0.0,
                8.742277657347586e-8,
                -1.0,
                0.0,
                1.2258445024490357,
                -0.6211298108100891,
                0.06983280926942826,
                1.0
            ]
        }
    ],
    "samplers": [
        {}
    ],
    "scenes": [
        {
            "nodes": [
                0
            ]
        }
    ],
    "textures": [
        {
            "source": 0,
            "sampler": 0
        }
    ],
    "scene": 0
}