{
  "accessors": [
    {
      "bufferView": 2,
      "componentType": 5126,
      "count": 65532,
      "max": [
        0.41219285130500793,
        0.48896825313568115,
        0.7208264470100403
      ],
      "min": [
        -0.42155346274375916,
        -0.15021753311157227,
        -0.6458814144134521
      ],
      "type": "VEC3"
    },
    {
      "bufferView": 2,
      "byteOffset": 786384,
      "componentType": 5126,
      "count": 65532,
      "max": [
        0.9999285340309143,
        0.9999988675117493,
        0.9999839067459106
      ],
      "min": [
        -0.9999926686286926,
        -0.9997815489768982,
        -0.9999513030052185
      ],
      "type": "VEC3"
    },
    {
      "bufferView": 1,
      "componentType": 5126,
      "count": 65532,
      "max": [
        0.9977788329124451,
        0.9196887612342834
      ],
      "min": [
        0.0021491050720214844,
        0.5710515975952148
      ],
      "type": "VEC2"
    },
    {
      "bufferView": 1,
      "byteOffset": 524256,
      "componentType": 5126,
      "count": 65532,
      "max": [
        0.9977788329124451,
        0.9196887612342834
      ],
      "min": [
        0.0021491050720214844,
        0.5710515975952148
      ],
      "type": "VEC2"
    },
    {
      "bufferView": 1,
      "byteOffset": 1048512,
      "componentType": 5126,
      "count": 65532,
      "max": [
        0.9977788329124451,
        0.9196887612342834
      ],
      "min": [
        0.0021491050720214844,
        0.5710515975952148
      ],
      "type": "VEC2"
    },
    {
      "bufferView": 1,
      "byteOffset": 1572768,
      "componentType": 5126,
      "count": 65532,
      "max": [
        0.9977788329124451,
        0.9196887612342834
      ],
      "min": [
        0.0021491050720214844,
        0.5710515975952148
      ],
      "type": "VEC2"
    },
    {
      "bufferView": 1,
      "byteOffset": 2097024,
      "componentType": 5126,
      "count": 65532,
      "max": [
        0.9977788329124451,
        0.9196887612342834
      ],
      "min": [
        0.0021491050720214844,
        0.5710515975952148
      ],
      "type": "VEC2"
    },
    {
      "bufferView": 1,
      "byteOffset": 2621280,
      "componentType": 5126,
      "count": 65532,
      "max": [
        0.9977788329124451,
        0.9196887612342834
      ],
      "min": [
        0.0021491050720214844,
        0.5710515975952148
      ],
      "type": "VEC2"
    },
    {
      "bufferView": 1,
      "byteOffset": 3145536,
      "componentType": 5126,
      "count": 65532,
      "max": [
        0.9977788329124451,
        0.9196887612342834
      ],
      "min": [
        0.0021491050720214844,
        0.5710515975952148
      ],
      "type": "VEC2"
    },
    {
      "bufferView": 1,
      "byteOffset": 3669792,
      "componentType": 5126,
      "count": 65532,
      "max": [
        0.9977788329124451,
        0.9196887612342834
      ],
      "min": [
        0.0021491050720214844,
        0.5710515975952148
      ],
      "type": "VEC2"
    },
    {
      "bufferView": 1,
      "byteOffset": 4194048,
      "componentType": 5126,
      "count": 65532,
      "max": [
        0.9977788329124451,
        0.9196887612342834
      ],
      "min": [
        0.0021491050720214844,
        0.5710515975952148
      ],
      "type": "VEC2"
    },
    {
      "bufferView": 1,
      "byteOffset": 4718304,
      "componentType": 5126,
      "count": 65532,
      "max": [
        0.9977788329124451,
        0.9196887612342834
      ],
      "min": [
        0.0021491050720214844,
        0.5710515975952148
      ],
      "type": "VEC2"
    },
    {
      "bufferView": 0,
      "componentType": 5125,
      "count": 313641,
      "type": "SCALAR"
    },
    {
      "bufferView": 2,
      "byteOffset": 1572768,
      "componentType": 5126,
      "count": 65532,
      "max": [
        0.4282226264476776,
        0.4884239435195923,
        0.7114424109458923
      ],
      "min": [
        -0.43513211607933044,
        -0.05209028720855713,
        -0.6111325025558472
      ],
      "type": "VEC3"
    },
    {
      "bufferView": 2,
      "byteOffset": 2359152,
      "componentType": 5126,
      "count": 65532,
      "max": [
        0.9999660849571228,
        0.9999997019767761,
        0.9999847412109375
      ],
      "min": [
        -0.9999547004699707,
        -0.9996777772903442,
        -0.999962329864502
      ],
      "type": "VEC3"
    },
    {
      "bufferView": 1,
      "byteOffset": 5242560,
      "componentType": 5126,
      "count": 65532,
      "max": [
        0.9968037605285645,
        0.9958463311195374
      ],
      "min": [
        0.00209595263004303,
        0.4763306975364685
      ],
      "type": "VEC2"
    },
    {
      "bufferView": 1,
      "byteOffset": 5766816,
      "componentType": 5126,
      "count": 65532,
      "max": [
        0.9968037605285645,
        0.9958463311195374
      ],
      "min": [
        0.00209595263004303,
        0.4763306975364685
      ],
      "type": "VEC2"
    },
    {
      "bufferView": 1,
      "byteOffset": 6291072,
      "componentType": 5126,
      "count": 65532,
      "max": [
        0.9968037605285645,
        0.9958463311195374
      ],
      "min": [
        0.00209595263004303,
        0.4763306975364685
      ],
      "type": "VEC2"
    },
    {
      "bufferView": 1,
      "byteOffset": 6815328,
      "componentType": 5126,
      "count": 65532,
      "max": [
        0.9968037605285645,
        0.9958463311195374
      ],
      "min": [
        0.00209595263004303,
        0.4763306975364685
      ],
      "type": "VEC2"
    },
    {
      "bufferView": 1,
      "byteOffset": 7339584,
      "componentType": 5126,
      "count": 65532,
      "max": [
        0.9968037605285645,
        0.9958463311195374
      ],
      "min": [
        0.00209595263004303,
        0.4763306975364685
      ],
      "type": "VEC2"
    },
    {
      "bufferView": 1,
      "byteOffset": 7863840,
      "componentType": 5126,
      "count": 65532,
      "max": [
        0.9968037605285645,
        0.9958463311195374
      ],
      "min": [
        0.00209595263004303,
        0.4763306975364685
      ],
      "type": "VEC2"
    },
    {
      "bufferView": 1,
      "byteOffset": 8388096,
      "componentType": 5126,
      "count": 65532,
      "max": [
        0.9968037605285645,
        0.9958463311195374
      ],
      "min": [
        0.00209595263004303,
        0.4763306975364685
      ],
      "type": "VEC2"
    },
    {
      "bufferView": 1,
      "byteOffset": 8912352,
      "componentType": 5126,
      "count": 65532,
      "max": [
        0.9968037605285645,
        0.9958463311195374
      ],
      "min": [
        0.00209595263004303,
        0.4763306975364685
      ],
      "type": "VEC2"
    },
    {
      "bufferView": 1,
      "byteOffset": 9436608,
      "componentType": 5126,
      "count": 65532,
      "max": [
        0.9968037605285645,
        0.9958463311195374
      ],
      "min": [
        0.00209595263004303,
        0.4763306975364685
      ],
      "type": "VEC2"
    },
    {
      "bufferView": 1,
      "byteOffset": 9960864,
      "componentType": 5126,
      "count": 65532,
      "max": [
        0.9968037605285645,
        0.9958463311195374
      ],
      "min": [
        0.00209595263004303,
        0.4763306975364685
      ],
      "type": "VEC2"
    },
    {
      "bufferView": 0,
      "byteOffset": 1254564,
      "componentType": 5125,
      "count": 354873,
      "type": "SCALAR"
    },
    {
      "bufferView": 2,
      "byteOffset": 3145536,
      "componentType": 5126,
      "count": 3198,
      "max": [
        0.3747423589229584,
        0.3037005364894867,
        0.5665541887283325
      ],
      "min": [
        -0.39714938402175903,
        -0.032275497913360596,
        -0.6170560121536255
      ],
      "type": "VEC3"
    },
    {
      "bufferView": 2,
      "byteOffset": 3183912,
      "componentType": 5126,
      "count": 3198,
      "max": [
        0.964789628982544,
        0.9999982118606567,
        0.9563612937927246
      ],
      "min": [
        -0.9921315908432007,
        -0.8552805185317993,
        -0.9925224781036377
      ],
      "type": "VEC3"
    },
    {
      "bufferView": 1,
      "byteOffset": 10485120,
      "componentType": 5126,
      "count": 3198,
      "max": [
        0.9152247905731201,
        0.8752723336219788
      ],
      "min": [
        0.36497974395751953,
        0.7451906204223633
      ],
      "type": "VEC2"
    },
    {
      "bufferView": 1,
      "byteOffset": 10510704,
      "componentType": 5126,
      "count": 3198,
      "max": [
        0.9152247905731201,
        0.8752723336219788
      ],
      "min": [
        0.36497974395751953,
        0.7451906204223633
      ],
      "type": "VEC2"
    },
    {
      "bufferView": 1,
      "byteOffset": 10536288,
      "componentType": 5126,
      "count": 3198,
      "max": [
        0.9152247905731201,
        0.8752723336219788
      ],
      "min": [
        0.36497974395751953,
        0.7451906204223633
      ],
      "type": "VEC2"
    },
    {
      "bufferView": 1,
      "byteOffset": 10561872,
      "componentType": 5126,
      "count": 3198,
      "max": [
        0.9152247905731201,
        0.8752723336219788
      ],
      "min": [
        0.36497974395751953,
        0.7451906204223633
      ],
      "type": "VEC2"
    },
    {
      "bufferView": 1,
      "byteOffset": 10587456,
      "componentType": 5126,
      "count": 3198,
      "max": [
        0.9152247905731201,
        0.8752723336219788
      ],
      "min": [
        0.36497974395751953,
        0.7451906204223633
      ],
      "type": "VEC2"
    },
    {
      "bufferView": 1,
      "byteOffset": 10613040,
      "componentType": 5126,
      "count": 3198,
      "max": [
        0.9152247905731201,
        0.8752723336219788
      ],
      "min": [
        0.36497974395751953,
        0.7451906204223633
      ],
      "type": "VEC2"
    },
    {
      "bufferView": 1,
      "byteOffset": 10638624,
      "componentType": 5126,
      "count": 3198,
      "max": [
        0.9152247905731201,
        0.8752723336219788
      ],
      "min": [
        0.36497974395751953,
        0.7451906204223633
      ],
      "type": "VEC2"
    },
    {
      "bufferView": 1,
      "byteOffset": 10664208,
      "componentType": 5126,
      "count": 3198,
      "max": [
        0.9152247905731201,
        0.8752723336219788
      ],
      "min": [
        0.36497974395751953,
        0.7451906204223633
      ],
      "type": "VEC2"
    },
    {
      "bufferView": 1,
      "byteOffset": 10689792,
      "componentType": 5126,
      "count": 3198,
      "max": [
        0.9152247905731201,
        0.8752723336219788
      ],
      "min": [
        0.36497974395751953,
        0.7451906204223633
      ],
      "type": "VEC2"
    },
    {
      "bufferView": 1,
      "byteOffset": 10715376,
      "componentType": 5126,
      "count": 3198,
      "max": [
        0.9152247905731201,
        0.8752723336219788
      ],
      "min": [
        0.36497974395751953,
        0.7451906204223633
      ],
      "type": "VEC2"
    },
    {
      "bufferView": 0,
      "byteOffset": 2674056,
      "componentType": 5125,
      "count": 16788,
      "type": "SCALAR"
    }
  ],
  "asset": {
    "extras": {
      "author": "ntsm (https://sketchfab.com/ntsm)",
      "license": "CC-BY-4.0 (http://creativecommons.org/licenses/by/4.0/)",
      "source": "https://sketchfab.com/3d-models/jomondokiscaniverse-2022-07-08-46a2d9d4e7e04cb89435eeffe83e0215",
      "title": "JomondokiScaniverse 2022-07-08"
    },
    "generator": "Sketchfab-13.68.0",
    "version": "2.0"
  },
  "bufferViews": [
    {
      "buffer": 0,
      "byteLength": 2741208,
      "name": "floatBufferViews",
      "target": 34963
    },
    {
      "buffer": 0,
      "byteLength": 10740960,
      "byteOffset": 2741208,
      "byteStride": 8,
      "name": "floatBufferViews",
      "target": 34962
    },
    {
      "buffer": 0,
      "byteLength": 3222288,
      "byteOffset": 13482168,
      "byteStride": 12,
      "name": "floatBufferViews",
      "target": 34962
    }
  ],
  "buffers": [
    {
      "byteLength": 16704456,
      "uri": "scene.bin"
    }
  ],
  "images": [
    {
      "uri": "textures/main_baseColor.jpeg"
    }
  ],
  "materials": [
    {
      "doubleSided": true,
      "name": "main",
      "pbrMetallicRoughness": {
        "baseColorTexture": {
          "index": 0
        },
        "metallicFactor": 0.0,
        "roughnessFactor": 0.6
      }
    }
  ],
  "meshes": [
    {
      "name": "mesh_main_0",
      "primitives": [
        {
          "attributes": {
            "NORMAL": 1,
            "POSITION": 0,
            "TEXCOORD_0": 2,
            "TEXCOORD_1": 3,
            "TEXCOORD_2": 4,
            "TEXCOORD_3": 5,
            "TEXCOORD_4": 6,
            "TEXCOORD_5": 7,
            "TEXCOORD_6": 8,
            "TEXCOORD_7": 9,
            "TEXCOORD_8": 10,
            "TEXCOORD_9": 11
          },
          "indices": 12,
          "material": 0,
          "mode": 4
        }
      ]
    },
    {
      "name": "mesh_main_0",
      "primitives": [
        {
          "attributes": {
            "NORMAL": 14,
            "POSITION": 13,
            "TEXCOORD_0": 15,
            "TEXCOORD_1": 16,
            "TEXCOORD_2": 17,
            "TEXCOORD_3": 18,
            "TEXCOORD_4": 19,
            "TEXCOORD_5": 20,
            "TEXCOORD_6": 21,
            "TEXCOORD_7": 22,
            "TEXCOORD_8": 23,
            "TEXCOORD_9": 24
          },
          "indices": 25,
          "material": 0,
          "mode": 4
        }
      ]
    },
    {
      "name": "mesh_main_0",
      "primitives": [
        {
          "attributes": {
            "NORMAL": 27,
            "POSITION": 26,
            "TEXCOORD_0": 28,
            "TEXCOORD_1": 29,
            "TEXCOORD_2": 30,
            "TEXCOORD_3": 31,
            "TEXCOORD_4": 32,
            "TEXCOORD_5": 33,
            "TEXCOORD_6": 34,
            "TEXCOORD_7": 35,
            "TEXCOORD_8": 36,
            "TEXCOORD_9": 37
          },
          "indices": 38,
          "material": 0,
          "mode": 4
        }
      ]
    }
  ],
  "nodes": [
    {
      "children": [
        1
      ],
      "matrix": [
        1.0,
        0.0,
        0.0,
        0.0,
        0.0,
        2.220446049250313e-16,
        -1.0,
        0.0,
        0.0,
        1.0,
        2.220446049250313e-16,
        0.0,
        0.0,
        0.0,
        0.0,
        1.0
      ],
      "name": "Sketchfab_model"
    },
    {
      "children": [
        2
      ],
      "matrix": [
        1.0,
        0.0,
        0.0,
        0.0,
        0.0,
        0.0,
        1.0,
        0.0,
        0.0,
        -1.0,
        0.0,
        0.0,
        0.0,
        0.0,
        0.0,
        1.0
      ],
      "name": "3fdd97e9ef4e4087822509f3696649cf.fbx"
    },
    {
      "children": [
        3
      ],
      "name": "RootNode"
    },
    {
      "children": [
        4,
        5,
        6
      ],
      "name": "mesh"
    },
    {
      "mesh": 0,
      "name": "mesh_main_0"
    },
    {
      "mesh": 1,
      "name": "mesh_main_0"
    },
    {
      "mesh": 2,
      "name": "mesh_main_0"
    }
  ],
  "samplers": [
    {
      "magFilter": 9729,
      "minFilter": 9987,
      "wrapS": 10497,
      "wrapT": 10497
    }
  ],
  "scene": 0,
  "scenes": [
    {
      "name": "Sketchfab_Scene",
      "nodes": [
        0
      ]
    }
  ],
  "textures": [
    {
      "sampler": 0,
      "source": 0
    }
  ]
}
